<mxfile host="app.diagrams.net" modified="2023-06-27T02:41:42.385Z" agent="Mozilla/5.0 (Macintosh; Intel Mac OS X 10_15_7) AppleWebKit/537.36 (KHTML, like Gecko) Chrome/110.0.0.0 Safari/537.36" etag="nsmGNYdsv96yUmFYDk2_" version="21.5.0" type="github">
  <diagram name="Page-1" id="fodUWXLXjqF-Y-c9JA9N">
    <mxGraphModel dx="1611" dy="864" grid="1" gridSize="10" guides="1" tooltips="1" connect="1" arrows="1" fold="1" page="1" pageScale="1" pageWidth="1200" pageHeight="1600" math="0" shadow="0">
      <root>
        <mxCell id="0" />
        <mxCell id="1" parent="0" />
        <mxCell id="OdtC2jutsqfuDb3ma48H-1" value="Branch" style="swimlane;childLayout=stackLayout;horizontal=1;startSize=50;horizontalStack=0;rounded=1;fontSize=14;fontStyle=0;strokeWidth=2;resizeParent=0;resizeLast=1;shadow=0;dashed=0;align=center;arcSize=4;whiteSpace=wrap;html=1;sketch=1;curveFitting=1;jiggle=2;swimlaneLine=1;labelBackgroundColor=none;fontFamily=Architects Daughter;fontSource=https%3A%2F%2Ffonts.googleapis.com%2Fcss%3Ffamily%3DArchitects%2BDaughter;" vertex="1" parent="1">
          <mxGeometry x="291" y="470" width="160" height="120" as="geometry" />
        </mxCell>
        <mxCell id="OdtC2jutsqfuDb3ma48H-2" value="Unique ID" style="align=left;spacingLeft=4;fontSize=12;verticalAlign=top;resizable=0;rotatable=0;part=1;html=1;sketch=1;curveFitting=1;jiggle=2;swimlaneLine=1;shadow=0;labelBackgroundColor=none;fontFamily=Architects Daughter;fontSource=https%3A%2F%2Ffonts.googleapis.com%2Fcss%3Ffamily%3DArchitects%2BDaughter;rounded=1;" vertex="1" parent="OdtC2jutsqfuDb3ma48H-1">
          <mxGeometry y="50" width="160" height="70" as="geometry" />
        </mxCell>
        <mxCell id="OdtC2jutsqfuDb3ma48H-5" style="edgeStyle=orthogonalEdgeStyle;rounded=1;orthogonalLoop=1;jettySize=auto;html=1;endArrow=none;endFill=0;sketch=1;curveFitting=1;jiggle=2;swimlaneLine=1;shadow=0;labelBackgroundColor=none;fontColor=default;fontFamily=Architects Daughter;fontSource=https%3A%2F%2Ffonts.googleapis.com%2Fcss%3Ffamily%3DArchitects%2BDaughter;" edge="1" parent="1" source="OdtC2jutsqfuDb3ma48H-3">
          <mxGeometry relative="1" as="geometry">
            <mxPoint x="451" y="530" as="targetPoint" />
          </mxGeometry>
        </mxCell>
        <mxCell id="OdtC2jutsqfuDb3ma48H-78" style="edgeStyle=orthogonalEdgeStyle;rounded=1;sketch=1;hachureGap=4;jiggle=2;curveFitting=1;orthogonalLoop=1;jettySize=auto;html=1;entryX=0.5;entryY=0;entryDx=0;entryDy=0;fontFamily=Architects Daughter;fontSource=https%3A%2F%2Ffonts.googleapis.com%2Fcss%3Ffamily%3DArchitects%2BDaughter;fontSize=16;exitX=0.5;exitY=0;exitDx=0;exitDy=0;endArrow=none;endFill=0;labelBackgroundColor=none;fontColor=default;swimlaneLine=1;" edge="1" parent="1" source="OdtC2jutsqfuDb3ma48H-3" target="OdtC2jutsqfuDb3ma48H-1">
          <mxGeometry relative="1" as="geometry">
            <Array as="points">
              <mxPoint x="641" y="433" />
              <mxPoint x="371" y="433" />
            </Array>
          </mxGeometry>
        </mxCell>
        <mxCell id="OdtC2jutsqfuDb3ma48H-3" value="Staff" style="swimlane;childLayout=stackLayout;horizontal=1;startSize=50;horizontalStack=0;rounded=1;fontSize=14;fontStyle=0;strokeWidth=2;resizeParent=0;resizeLast=1;shadow=0;dashed=0;align=center;arcSize=4;whiteSpace=wrap;html=1;sketch=1;curveFitting=1;jiggle=2;swimlaneLine=1;labelBackgroundColor=none;fontFamily=Architects Daughter;fontSource=https%3A%2F%2Ffonts.googleapis.com%2Fcss%3Ffamily%3DArchitects%2BDaughter;" vertex="1" parent="1">
          <mxGeometry x="561" y="470" width="160" height="120" as="geometry" />
        </mxCell>
        <mxCell id="OdtC2jutsqfuDb3ma48H-4" value="Unique Staff ID" style="align=left;spacingLeft=4;fontSize=12;verticalAlign=top;resizable=0;rotatable=0;part=1;html=1;sketch=1;curveFitting=1;jiggle=2;swimlaneLine=1;shadow=0;labelBackgroundColor=none;fontFamily=Architects Daughter;fontSource=https%3A%2F%2Ffonts.googleapis.com%2Fcss%3Ffamily%3DArchitects%2BDaughter;rounded=1;" vertex="1" parent="OdtC2jutsqfuDb3ma48H-3">
          <mxGeometry y="50" width="160" height="70" as="geometry" />
        </mxCell>
        <mxCell id="OdtC2jutsqfuDb3ma48H-6" value="1..1" style="text;html=1;align=center;verticalAlign=middle;resizable=0;points=[];autosize=1;sketch=1;curveFitting=1;jiggle=2;swimlaneLine=1;shadow=0;labelBackgroundColor=none;fontFamily=Architects Daughter;fontSource=https%3A%2F%2Ffonts.googleapis.com%2Fcss%3Ffamily%3DArchitects%2BDaughter;rounded=1;" vertex="1" parent="1">
          <mxGeometry x="451" y="530" width="30" height="30" as="geometry" />
        </mxCell>
        <mxCell id="OdtC2jutsqfuDb3ma48H-7" value="1..*" style="text;html=1;align=center;verticalAlign=middle;resizable=0;points=[];autosize=1;sketch=1;curveFitting=1;jiggle=2;swimlaneLine=1;shadow=0;labelBackgroundColor=none;fontFamily=Architects Daughter;fontSource=https%3A%2F%2Ffonts.googleapis.com%2Fcss%3Ffamily%3DArchitects%2BDaughter;rounded=1;" vertex="1" parent="1">
          <mxGeometry x="531" y="530" width="30" height="30" as="geometry" />
        </mxCell>
        <mxCell id="OdtC2jutsqfuDb3ma48H-8" value="&amp;lt; Works" style="text;html=1;align=center;verticalAlign=middle;resizable=0;points=[];autosize=1;sketch=1;curveFitting=1;jiggle=2;swimlaneLine=1;shadow=0;labelBackgroundColor=none;fontFamily=Architects Daughter;fontSource=https%3A%2F%2Ffonts.googleapis.com%2Fcss%3Ffamily%3DArchitects%2BDaughter;rounded=1;" vertex="1" parent="1">
          <mxGeometry x="471" y="500" width="70" height="30" as="geometry" />
        </mxCell>
        <mxCell id="OdtC2jutsqfuDb3ma48H-14" style="edgeStyle=orthogonalEdgeStyle;rounded=1;orthogonalLoop=1;jettySize=auto;html=1;entryX=1.006;entryY=0.143;entryDx=0;entryDy=0;entryPerimeter=0;endArrow=none;endFill=0;sketch=1;curveFitting=1;jiggle=2;swimlaneLine=1;shadow=0;labelBackgroundColor=none;fontColor=default;fontFamily=Architects Daughter;fontSource=https%3A%2F%2Ffonts.googleapis.com%2Fcss%3Ffamily%3DArchitects%2BDaughter;" edge="1" parent="1" source="OdtC2jutsqfuDb3ma48H-10" target="OdtC2jutsqfuDb3ma48H-13">
          <mxGeometry relative="1" as="geometry" />
        </mxCell>
        <mxCell id="OdtC2jutsqfuDb3ma48H-34" style="edgeStyle=orthogonalEdgeStyle;rounded=1;sketch=1;hachureGap=4;jiggle=2;curveFitting=1;orthogonalLoop=1;jettySize=auto;html=1;entryX=0;entryY=0.25;entryDx=0;entryDy=0;fontFamily=Architects Daughter;fontSource=https%3A%2F%2Ffonts.googleapis.com%2Fcss%3Ffamily%3DArchitects%2BDaughter;fontSize=16;endArrow=none;endFill=0;labelBackgroundColor=none;fontColor=default;swimlaneLine=1;" edge="1" parent="1" source="OdtC2jutsqfuDb3ma48H-10" target="OdtC2jutsqfuDb3ma48H-27">
          <mxGeometry relative="1" as="geometry" />
        </mxCell>
        <mxCell id="OdtC2jutsqfuDb3ma48H-43" style="edgeStyle=orthogonalEdgeStyle;rounded=1;sketch=1;hachureGap=4;jiggle=2;curveFitting=1;orthogonalLoop=1;jettySize=auto;html=1;entryX=0.5;entryY=1;entryDx=0;entryDy=0;fontFamily=Architects Daughter;fontSource=https%3A%2F%2Ffonts.googleapis.com%2Fcss%3Ffamily%3DArchitects%2BDaughter;fontSize=16;endArrow=none;endFill=0;labelBackgroundColor=none;fontColor=default;swimlaneLine=1;" edge="1" parent="1" source="OdtC2jutsqfuDb3ma48H-10" target="OdtC2jutsqfuDb3ma48H-32">
          <mxGeometry relative="1" as="geometry" />
        </mxCell>
        <mxCell id="OdtC2jutsqfuDb3ma48H-10" value="Customer" style="swimlane;childLayout=stackLayout;horizontal=1;startSize=50;horizontalStack=0;rounded=1;fontSize=14;fontStyle=0;strokeWidth=2;resizeParent=0;resizeLast=1;shadow=0;dashed=0;align=center;arcSize=4;whiteSpace=wrap;html=1;sketch=1;curveFitting=1;jiggle=2;swimlaneLine=1;labelBackgroundColor=none;fontFamily=Architects Daughter;fontSource=https%3A%2F%2Ffonts.googleapis.com%2Fcss%3Ffamily%3DArchitects%2BDaughter;" vertex="1" parent="1">
          <mxGeometry x="561" y="870" width="160" height="120" as="geometry">
            <mxRectangle x="518" y="872" width="100" height="50" as="alternateBounds" />
          </mxGeometry>
        </mxCell>
        <mxCell id="OdtC2jutsqfuDb3ma48H-11" value="Unique Customer ID" style="align=left;spacingLeft=4;fontSize=12;verticalAlign=top;resizable=0;rotatable=0;part=1;html=1;sketch=1;curveFitting=1;jiggle=2;swimlaneLine=1;shadow=0;labelBackgroundColor=none;fontFamily=Architects Daughter;fontSource=https%3A%2F%2Ffonts.googleapis.com%2Fcss%3Ffamily%3DArchitects%2BDaughter;rounded=1;" vertex="1" parent="OdtC2jutsqfuDb3ma48H-10">
          <mxGeometry y="50" width="160" height="70" as="geometry" />
        </mxCell>
        <mxCell id="OdtC2jutsqfuDb3ma48H-72" style="edgeStyle=orthogonalEdgeStyle;rounded=1;sketch=1;hachureGap=4;jiggle=2;curveFitting=1;orthogonalLoop=1;jettySize=auto;html=1;entryX=0.5;entryY=1;entryDx=0;entryDy=0;fontFamily=Architects Daughter;fontSource=https%3A%2F%2Ffonts.googleapis.com%2Fcss%3Ffamily%3DArchitects%2BDaughter;fontSize=16;endArrow=none;endFill=0;labelBackgroundColor=none;fontColor=default;swimlaneLine=1;" edge="1" parent="1" source="OdtC2jutsqfuDb3ma48H-12" target="OdtC2jutsqfuDb3ma48H-2">
          <mxGeometry relative="1" as="geometry" />
        </mxCell>
        <mxCell id="OdtC2jutsqfuDb3ma48H-12" value="Car Details" style="swimlane;childLayout=stackLayout;horizontal=1;startSize=50;horizontalStack=0;rounded=1;fontSize=14;fontStyle=0;strokeWidth=2;resizeParent=0;resizeLast=1;shadow=0;dashed=0;align=center;arcSize=4;whiteSpace=wrap;html=1;sketch=1;curveFitting=1;jiggle=2;swimlaneLine=1;labelBackgroundColor=none;fontFamily=Architects Daughter;fontSource=https%3A%2F%2Ffonts.googleapis.com%2Fcss%3Ffamily%3DArchitects%2BDaughter;" vertex="1" parent="1">
          <mxGeometry x="291" y="790" width="160" height="120" as="geometry" />
        </mxCell>
        <mxCell id="OdtC2jutsqfuDb3ma48H-13" value="Car Registration No." style="align=left;spacingLeft=4;fontSize=12;verticalAlign=top;resizable=0;rotatable=0;part=1;html=1;sketch=1;curveFitting=1;jiggle=2;swimlaneLine=1;shadow=0;labelBackgroundColor=none;fontFamily=Architects Daughter;fontSource=https%3A%2F%2Ffonts.googleapis.com%2Fcss%3Ffamily%3DArchitects%2BDaughter;rounded=1;" vertex="1" parent="OdtC2jutsqfuDb3ma48H-12">
          <mxGeometry y="50" width="160" height="70" as="geometry" />
        </mxCell>
        <mxCell id="OdtC2jutsqfuDb3ma48H-15" value="&amp;lt; Searches" style="text;html=1;align=center;verticalAlign=middle;resizable=0;points=[];autosize=1;sketch=1;curveFitting=1;jiggle=2;swimlaneLine=1;shadow=0;labelBackgroundColor=none;fontFamily=Architects Daughter;fontSource=https%3A%2F%2Ffonts.googleapis.com%2Fcss%3Ffamily%3DArchitects%2BDaughter;rotation=90;rounded=1;" vertex="1" parent="1">
          <mxGeometry x="448" y="875" width="90" height="30" as="geometry" />
        </mxCell>
        <mxCell id="OdtC2jutsqfuDb3ma48H-18" value="0..*" style="text;html=1;align=center;verticalAlign=middle;resizable=0;points=[];autosize=1;sketch=1;curveFitting=1;jiggle=2;swimlaneLine=1;shadow=0;labelBackgroundColor=none;fontFamily=Architects Daughter;fontSource=https%3A%2F%2Ffonts.googleapis.com%2Fcss%3Ffamily%3DArchitects%2BDaughter;rounded=1;" vertex="1" parent="1">
          <mxGeometry x="451" y="820" width="40" height="30" as="geometry" />
        </mxCell>
        <mxCell id="OdtC2jutsqfuDb3ma48H-19" value="0..1" style="text;html=1;align=center;verticalAlign=middle;resizable=0;points=[];autosize=1;sketch=1;curveFitting=1;jiggle=2;swimlaneLine=1;shadow=0;labelBackgroundColor=none;fontFamily=Architects Daughter;fontSource=https%3A%2F%2Ffonts.googleapis.com%2Fcss%3Ffamily%3DArchitects%2BDaughter;rounded=1;" vertex="1" parent="1">
          <mxGeometry x="526" y="900" width="40" height="30" as="geometry" />
        </mxCell>
        <mxCell id="OdtC2jutsqfuDb3ma48H-81" style="edgeStyle=orthogonalEdgeStyle;rounded=1;sketch=1;hachureGap=4;jiggle=2;curveFitting=1;orthogonalLoop=1;jettySize=auto;html=1;entryX=0;entryY=0.25;entryDx=0;entryDy=0;fontFamily=Architects Daughter;fontSource=https%3A%2F%2Ffonts.googleapis.com%2Fcss%3Ffamily%3DArchitects%2BDaughter;fontSize=16;exitX=0;exitY=0.25;exitDx=0;exitDy=0;endArrow=none;endFill=0;" edge="1" parent="1" source="OdtC2jutsqfuDb3ma48H-21" target="OdtC2jutsqfuDb3ma48H-13">
          <mxGeometry relative="1" as="geometry">
            <Array as="points">
              <mxPoint x="253" y="1022" />
              <mxPoint x="253" y="858" />
            </Array>
          </mxGeometry>
        </mxCell>
        <mxCell id="OdtC2jutsqfuDb3ma48H-20" value="Search" style="swimlane;childLayout=stackLayout;horizontal=1;startSize=50;horizontalStack=0;rounded=1;fontSize=14;fontStyle=0;strokeWidth=2;resizeParent=0;resizeLast=1;shadow=0;dashed=0;align=center;arcSize=4;whiteSpace=wrap;html=1;sketch=1;curveFitting=1;jiggle=2;swimlaneLine=1;labelBackgroundColor=none;fontFamily=Architects Daughter;fontSource=https%3A%2F%2Ffonts.googleapis.com%2Fcss%3Ffamily%3DArchitects%2BDaughter;" vertex="1" parent="1">
          <mxGeometry x="291" y="954" width="160" height="120" as="geometry" />
        </mxCell>
        <mxCell id="OdtC2jutsqfuDb3ma48H-21" value="Unique Search ID" style="align=left;spacingLeft=4;fontSize=12;verticalAlign=top;resizable=0;rotatable=0;part=1;html=1;sketch=1;curveFitting=1;jiggle=2;swimlaneLine=1;shadow=0;labelBackgroundColor=none;fontFamily=Architects Daughter;fontSource=https%3A%2F%2Ffonts.googleapis.com%2Fcss%3Ffamily%3DArchitects%2BDaughter;rounded=1;" vertex="1" parent="OdtC2jutsqfuDb3ma48H-20">
          <mxGeometry y="50" width="160" height="70" as="geometry" />
        </mxCell>
        <mxCell id="OdtC2jutsqfuDb3ma48H-24" value="Payment" style="swimlane;childLayout=stackLayout;horizontal=1;startSize=50;horizontalStack=0;rounded=1;fontSize=14;fontStyle=0;strokeWidth=2;resizeParent=0;resizeLast=1;shadow=0;dashed=0;align=center;arcSize=4;whiteSpace=wrap;html=1;sketch=1;curveFitting=1;jiggle=2;labelBackgroundColor=none;fontFamily=Architects Daughter;fontSource=https%3A%2F%2Ffonts.googleapis.com%2Fcss%3Ffamily%3DArchitects%2BDaughter;swimlaneLine=1;" vertex="1" parent="1">
          <mxGeometry x="836" y="954" width="160" height="120" as="geometry" />
        </mxCell>
        <mxCell id="OdtC2jutsqfuDb3ma48H-25" value="Payment ID" style="align=left;spacingLeft=4;fontSize=12;verticalAlign=top;resizable=0;rotatable=0;part=1;html=1;sketch=1;curveFitting=1;jiggle=2;labelBackgroundColor=none;fontFamily=Architects Daughter;fontSource=https%3A%2F%2Ffonts.googleapis.com%2Fcss%3Ffamily%3DArchitects%2BDaughter;rounded=1;swimlaneLine=1;" vertex="1" parent="OdtC2jutsqfuDb3ma48H-24">
          <mxGeometry y="50" width="160" height="70" as="geometry" />
        </mxCell>
        <mxCell id="OdtC2jutsqfuDb3ma48H-26" value="Payment Options" style="swimlane;childLayout=stackLayout;horizontal=1;startSize=50;horizontalStack=0;rounded=1;fontSize=14;fontStyle=0;strokeWidth=2;resizeParent=0;resizeLast=1;shadow=0;dashed=0;align=center;arcSize=4;whiteSpace=wrap;html=1;sketch=1;curveFitting=1;jiggle=2;labelBackgroundColor=none;fontFamily=Architects Daughter;fontSource=https%3A%2F%2Ffonts.googleapis.com%2Fcss%3Ffamily%3DArchitects%2BDaughter;swimlaneLine=1;" vertex="1" parent="1">
          <mxGeometry x="836" y="790" width="160" height="120" as="geometry" />
        </mxCell>
        <mxCell id="OdtC2jutsqfuDb3ma48H-27" value="Pay Option ID" style="align=left;spacingLeft=4;fontSize=12;verticalAlign=top;resizable=0;rotatable=0;part=1;html=1;sketch=1;curveFitting=1;jiggle=2;labelBackgroundColor=none;fontFamily=Architects Daughter;fontSource=https%3A%2F%2Ffonts.googleapis.com%2Fcss%3Ffamily%3DArchitects%2BDaughter;rounded=1;swimlaneLine=1;" vertex="1" parent="OdtC2jutsqfuDb3ma48H-26">
          <mxGeometry y="50" width="160" height="70" as="geometry" />
        </mxCell>
        <mxCell id="OdtC2jutsqfuDb3ma48H-86" style="edgeStyle=orthogonalEdgeStyle;rounded=1;sketch=1;hachureGap=4;jiggle=2;curveFitting=1;orthogonalLoop=1;jettySize=auto;html=1;entryX=0.5;entryY=1;entryDx=0;entryDy=0;fontFamily=Architects Daughter;fontSource=https%3A%2F%2Ffonts.googleapis.com%2Fcss%3Ffamily%3DArchitects%2BDaughter;fontSize=16;endArrow=none;endFill=0;" edge="1" parent="1" source="OdtC2jutsqfuDb3ma48H-29" target="OdtC2jutsqfuDb3ma48H-10">
          <mxGeometry relative="1" as="geometry" />
        </mxCell>
        <mxCell id="OdtC2jutsqfuDb3ma48H-29" value="Reminders" style="swimlane;childLayout=stackLayout;horizontal=1;startSize=50;horizontalStack=0;rounded=1;fontSize=14;fontStyle=0;strokeWidth=2;resizeParent=0;resizeLast=1;shadow=0;dashed=0;align=center;arcSize=4;whiteSpace=wrap;html=1;sketch=1;curveFitting=1;jiggle=2;labelBackgroundColor=none;fontFamily=Architects Daughter;fontSource=https%3A%2F%2Ffonts.googleapis.com%2Fcss%3Ffamily%3DArchitects%2BDaughter;swimlaneLine=1;" vertex="1" parent="1">
          <mxGeometry x="562" y="1078" width="160" height="120" as="geometry" />
        </mxCell>
        <mxCell id="OdtC2jutsqfuDb3ma48H-30" value="Customer ID" style="align=left;spacingLeft=4;fontSize=12;verticalAlign=top;resizable=0;rotatable=0;part=1;html=1;sketch=1;curveFitting=1;jiggle=2;labelBackgroundColor=none;fontFamily=Architects Daughter;fontSource=https%3A%2F%2Ffonts.googleapis.com%2Fcss%3Ffamily%3DArchitects%2BDaughter;rounded=1;swimlaneLine=1;" vertex="1" parent="OdtC2jutsqfuDb3ma48H-29">
          <mxGeometry y="50" width="160" height="70" as="geometry" />
        </mxCell>
        <mxCell id="OdtC2jutsqfuDb3ma48H-44" style="edgeStyle=orthogonalEdgeStyle;rounded=1;sketch=1;hachureGap=4;jiggle=2;curveFitting=1;orthogonalLoop=1;jettySize=auto;html=1;entryX=0.5;entryY=1;entryDx=0;entryDy=0;fontFamily=Architects Daughter;fontSource=https%3A%2F%2Ffonts.googleapis.com%2Fcss%3Ffamily%3DArchitects%2BDaughter;fontSize=16;endArrow=none;endFill=0;labelBackgroundColor=none;fontColor=default;swimlaneLine=1;" edge="1" parent="1" source="OdtC2jutsqfuDb3ma48H-31" target="OdtC2jutsqfuDb3ma48H-4">
          <mxGeometry relative="1" as="geometry" />
        </mxCell>
        <mxCell id="OdtC2jutsqfuDb3ma48H-31" value="Rental Agreement" style="swimlane;childLayout=stackLayout;horizontal=1;startSize=50;horizontalStack=0;rounded=1;fontSize=14;fontStyle=0;strokeWidth=2;resizeParent=0;resizeLast=1;shadow=0;dashed=0;align=center;arcSize=4;whiteSpace=wrap;html=1;sketch=1;hachureGap=4;jiggle=2;curveFitting=1;fontFamily=Architects Daughter;fontSource=https%3A%2F%2Ffonts.googleapis.com%2Fcss%3Ffamily%3DArchitects%2BDaughter;labelBackgroundColor=none;swimlaneLine=1;" vertex="1" parent="1">
          <mxGeometry x="561" y="670" width="160" height="120" as="geometry">
            <mxRectangle x="331" y="456" width="160" height="50" as="alternateBounds" />
          </mxGeometry>
        </mxCell>
        <mxCell id="OdtC2jutsqfuDb3ma48H-32" value="Rental ID" style="align=left;spacingLeft=4;fontSize=12;verticalAlign=top;resizable=0;rotatable=0;part=1;html=1;sketch=1;hachureGap=4;jiggle=2;curveFitting=1;fontFamily=Architects Daughter;fontSource=https%3A%2F%2Ffonts.googleapis.com%2Fcss%3Ffamily%3DArchitects%2BDaughter;labelBackgroundColor=none;rounded=1;swimlaneLine=1;" vertex="1" parent="OdtC2jutsqfuDb3ma48H-31">
          <mxGeometry y="50" width="160" height="70" as="geometry" />
        </mxCell>
        <mxCell id="OdtC2jutsqfuDb3ma48H-35" style="edgeStyle=orthogonalEdgeStyle;rounded=1;sketch=1;hachureGap=4;jiggle=2;curveFitting=1;orthogonalLoop=1;jettySize=auto;html=1;entryX=0;entryY=0.25;entryDx=0;entryDy=0;fontFamily=Architects Daughter;fontSource=https%3A%2F%2Ffonts.googleapis.com%2Fcss%3Ffamily%3DArchitects%2BDaughter;fontSize=16;endArrow=none;endFill=0;labelBackgroundColor=none;fontColor=default;swimlaneLine=1;" edge="1" parent="1" source="OdtC2jutsqfuDb3ma48H-11" target="OdtC2jutsqfuDb3ma48H-25">
          <mxGeometry relative="1" as="geometry" />
        </mxCell>
        <mxCell id="OdtC2jutsqfuDb3ma48H-36" value="1..*" style="text;html=1;align=center;verticalAlign=middle;resizable=0;points=[];autosize=1;fontSize=12;fontFamily=Architects Daughter;labelBackgroundColor=none;rounded=1;swimlaneLine=1;" vertex="1" parent="1">
          <mxGeometry x="721" y="900" width="30" height="30" as="geometry" />
        </mxCell>
        <mxCell id="OdtC2jutsqfuDb3ma48H-37" value="&lt;font style=&quot;font-size: 12px;&quot;&gt;1..*&lt;/font&gt;" style="text;html=1;align=center;verticalAlign=middle;resizable=0;points=[];autosize=1;fontSize=20;fontFamily=Architects Daughter;labelBackgroundColor=none;rounded=1;swimlaneLine=1;" vertex="1" parent="1">
          <mxGeometry x="806" y="820" width="30" height="40" as="geometry" />
        </mxCell>
        <mxCell id="OdtC2jutsqfuDb3ma48H-38" value="1..1" style="text;html=1;align=center;verticalAlign=middle;resizable=0;points=[];autosize=1;fontSize=12;fontFamily=Architects Daughter;labelBackgroundColor=none;rounded=1;swimlaneLine=1;" vertex="1" parent="1">
          <mxGeometry x="721" y="954" width="30" height="30" as="geometry" />
        </mxCell>
        <mxCell id="OdtC2jutsqfuDb3ma48H-39" value="1..*" style="text;html=1;align=center;verticalAlign=middle;resizable=0;points=[];autosize=1;fontSize=12;fontFamily=Architects Daughter;labelBackgroundColor=none;rounded=1;swimlaneLine=1;" vertex="1" parent="1">
          <mxGeometry x="806" y="1020" width="30" height="30" as="geometry" />
        </mxCell>
        <mxCell id="OdtC2jutsqfuDb3ma48H-40" value="&lt;font style=&quot;font-size: 12px;&quot;&gt;&amp;lt; Pays&lt;/font&gt;" style="text;html=1;align=center;verticalAlign=middle;resizable=0;points=[];autosize=1;fontSize=20;fontFamily=Architects Daughter;rotation=-90;labelBackgroundColor=none;rounded=1;swimlaneLine=1;" vertex="1" parent="1">
          <mxGeometry x="759" y="970" width="60" height="40" as="geometry" />
        </mxCell>
        <mxCell id="OdtC2jutsqfuDb3ma48H-42" value="&lt;font style=&quot;font-size: 12px;&quot;&gt;Chooses &amp;gt;&lt;/font&gt;" style="text;html=1;align=center;verticalAlign=middle;resizable=0;points=[];autosize=1;fontSize=20;fontFamily=Architects Daughter;rotation=-90;labelBackgroundColor=none;rounded=1;swimlaneLine=1;" vertex="1" parent="1">
          <mxGeometry x="749" y="875" width="80" height="40" as="geometry" />
        </mxCell>
        <mxCell id="OdtC2jutsqfuDb3ma48H-46" value="0..*" style="text;html=1;align=center;verticalAlign=middle;resizable=0;points=[];autosize=1;sketch=1;curveFitting=1;jiggle=2;swimlaneLine=1;shadow=0;labelBackgroundColor=none;fontFamily=Architects Daughter;fontSource=https%3A%2F%2Ffonts.googleapis.com%2Fcss%3Ffamily%3DArchitects%2BDaughter;rounded=1;" vertex="1" parent="1">
          <mxGeometry x="636" y="840" width="40" height="30" as="geometry" />
        </mxCell>
        <mxCell id="OdtC2jutsqfuDb3ma48H-47" value="0..*" style="text;html=1;align=center;verticalAlign=middle;resizable=0;points=[];autosize=1;sketch=1;curveFitting=1;jiggle=2;swimlaneLine=1;shadow=0;labelBackgroundColor=none;fontFamily=Architects Daughter;fontSource=https%3A%2F%2Ffonts.googleapis.com%2Fcss%3Ffamily%3DArchitects%2BDaughter;rounded=1;" vertex="1" parent="1">
          <mxGeometry x="636" y="790" width="40" height="30" as="geometry" />
        </mxCell>
        <mxCell id="OdtC2jutsqfuDb3ma48H-48" value="1..*" style="text;html=1;align=center;verticalAlign=middle;resizable=0;points=[];autosize=1;sketch=1;curveFitting=1;jiggle=2;swimlaneLine=1;shadow=0;labelBackgroundColor=none;fontFamily=Architects Daughter;fontSource=https%3A%2F%2Ffonts.googleapis.com%2Fcss%3Ffamily%3DArchitects%2BDaughter;rounded=1;" vertex="1" parent="1">
          <mxGeometry x="641" y="640" width="30" height="30" as="geometry" />
        </mxCell>
        <mxCell id="OdtC2jutsqfuDb3ma48H-49" value="1..*" style="text;html=1;align=center;verticalAlign=middle;resizable=0;points=[];autosize=1;sketch=1;curveFitting=1;jiggle=2;swimlaneLine=1;shadow=0;labelBackgroundColor=none;fontFamily=Architects Daughter;fontSource=https%3A%2F%2Ffonts.googleapis.com%2Fcss%3Ffamily%3DArchitects%2BDaughter;rounded=1;" vertex="1" parent="1">
          <mxGeometry x="641" y="590" width="30" height="30" as="geometry" />
        </mxCell>
        <mxCell id="OdtC2jutsqfuDb3ma48H-51" value="&lt;font style=&quot;font-size: 12px;&quot;&gt;Agrees &amp;gt;&lt;/font&gt;" style="text;html=1;align=center;verticalAlign=middle;resizable=0;points=[];autosize=1;fontSize=20;fontFamily=Architects Daughter;rotation=-90;labelBackgroundColor=none;rounded=1;swimlaneLine=1;" vertex="1" parent="1">
          <mxGeometry x="591" y="810" width="70" height="40" as="geometry" />
        </mxCell>
        <mxCell id="OdtC2jutsqfuDb3ma48H-52" value="&lt;font style=&quot;font-size: 12px;&quot;&gt;&amp;lt; Administers&lt;/font&gt;" style="text;html=1;align=center;verticalAlign=middle;resizable=0;points=[];autosize=1;fontSize=20;fontFamily=Architects Daughter;rotation=-90;labelBackgroundColor=none;rounded=1;swimlaneLine=1;" vertex="1" parent="1">
          <mxGeometry x="576" y="610" width="100" height="40" as="geometry" />
        </mxCell>
        <mxCell id="OdtC2jutsqfuDb3ma48H-65" style="edgeStyle=orthogonalEdgeStyle;rounded=1;sketch=1;hachureGap=4;jiggle=2;curveFitting=1;orthogonalLoop=1;jettySize=auto;html=1;fontFamily=Architects Daughter;fontSource=https%3A%2F%2Ffonts.googleapis.com%2Fcss%3Ffamily%3DArchitects%2BDaughter;fontSize=16;endArrow=none;endFill=0;labelBackgroundColor=none;fontColor=default;swimlaneLine=1;entryX=-0.028;entryY=-0.146;entryDx=0;entryDy=0;entryPerimeter=0;" edge="1" parent="1" source="OdtC2jutsqfuDb3ma48H-11" target="OdtC2jutsqfuDb3ma48H-68">
          <mxGeometry relative="1" as="geometry">
            <mxPoint x="463" y="1008" as="targetPoint" />
            <Array as="points">
              <mxPoint x="503" y="955" />
              <mxPoint x="503" y="1016" />
            </Array>
          </mxGeometry>
        </mxCell>
        <mxCell id="OdtC2jutsqfuDb3ma48H-66" value="&amp;lt; Sent" style="text;html=1;align=center;verticalAlign=middle;resizable=0;points=[];autosize=1;sketch=1;curveFitting=1;jiggle=2;swimlaneLine=1;shadow=0;labelBackgroundColor=none;fontFamily=Architects Daughter;fontSource=https%3A%2F%2Ffonts.googleapis.com%2Fcss%3Ffamily%3DArchitects%2BDaughter;rotation=90;rounded=1;" vertex="1" parent="1">
          <mxGeometry x="463" y="974" width="60" height="30" as="geometry" />
        </mxCell>
        <mxCell id="OdtC2jutsqfuDb3ma48H-67" value="0..*" style="text;html=1;align=center;verticalAlign=middle;resizable=0;points=[];autosize=1;sketch=1;curveFitting=1;jiggle=2;swimlaneLine=1;shadow=0;labelBackgroundColor=none;fontFamily=Architects Daughter;fontSource=https%3A%2F%2Ffonts.googleapis.com%2Fcss%3Ffamily%3DArchitects%2BDaughter;rounded=1;" vertex="1" parent="1">
          <mxGeometry x="526" y="954" width="40" height="30" as="geometry" />
        </mxCell>
        <mxCell id="OdtC2jutsqfuDb3ma48H-68" value="1..1" style="text;html=1;align=center;verticalAlign=middle;resizable=0;points=[];autosize=1;sketch=1;curveFitting=1;jiggle=2;swimlaneLine=1;shadow=0;labelBackgroundColor=none;fontFamily=Architects Daughter;fontSource=https%3A%2F%2Ffonts.googleapis.com%2Fcss%3Ffamily%3DArchitects%2BDaughter;rounded=1;" vertex="1" parent="1">
          <mxGeometry x="451" y="1018" width="30" height="30" as="geometry" />
        </mxCell>
        <mxCell id="OdtC2jutsqfuDb3ma48H-69" value="0..*" style="text;html=1;align=center;verticalAlign=middle;resizable=0;points=[];autosize=1;sketch=1;curveFitting=1;jiggle=2;swimlaneLine=1;shadow=0;labelBackgroundColor=none;fontFamily=Architects Daughter;fontSource=https%3A%2F%2Ffonts.googleapis.com%2Fcss%3Ffamily%3DArchitects%2BDaughter;rounded=1;" vertex="1" parent="1">
          <mxGeometry x="641" y="1048" width="40" height="30" as="geometry" />
        </mxCell>
        <mxCell id="OdtC2jutsqfuDb3ma48H-70" value="1..1" style="text;html=1;align=center;verticalAlign=middle;resizable=0;points=[];autosize=1;sketch=1;curveFitting=1;jiggle=2;swimlaneLine=1;shadow=0;labelBackgroundColor=none;fontFamily=Architects Daughter;fontSource=https%3A%2F%2Ffonts.googleapis.com%2Fcss%3Ffamily%3DArchitects%2BDaughter;rounded=1;" vertex="1" parent="1">
          <mxGeometry x="643" y="990" width="30" height="30" as="geometry" />
        </mxCell>
        <mxCell id="OdtC2jutsqfuDb3ma48H-71" value="&amp;lt; Saves" style="text;html=1;align=center;verticalAlign=middle;resizable=0;points=[];autosize=1;sketch=1;curveFitting=1;jiggle=2;swimlaneLine=1;shadow=0;labelBackgroundColor=none;fontFamily=Architects Daughter;fontSource=https%3A%2F%2Ffonts.googleapis.com%2Fcss%3Ffamily%3DArchitects%2BDaughter;rotation=90;rounded=1;" vertex="1" parent="1">
          <mxGeometry x="591" y="1020" width="70" height="30" as="geometry" />
        </mxCell>
        <mxCell id="OdtC2jutsqfuDb3ma48H-74" value="&amp;lt; Stores" style="text;html=1;align=center;verticalAlign=middle;resizable=0;points=[];autosize=1;sketch=1;curveFitting=1;jiggle=2;swimlaneLine=1;shadow=0;labelBackgroundColor=none;fontFamily=Architects Daughter;fontSource=https%3A%2F%2Ffonts.googleapis.com%2Fcss%3Ffamily%3DArchitects%2BDaughter;rotation=-90;rounded=1;" vertex="1" parent="1">
          <mxGeometry x="326" y="673" width="70" height="30" as="geometry" />
        </mxCell>
        <mxCell id="OdtC2jutsqfuDb3ma48H-75" value="1..*" style="text;html=1;align=center;verticalAlign=middle;resizable=0;points=[];autosize=1;sketch=1;curveFitting=1;jiggle=2;swimlaneLine=1;shadow=0;labelBackgroundColor=none;fontFamily=Architects Daughter;fontSource=https%3A%2F%2Ffonts.googleapis.com%2Fcss%3Ffamily%3DArchitects%2BDaughter;rounded=1;" vertex="1" parent="1">
          <mxGeometry x="366" y="760" width="30" height="30" as="geometry" />
        </mxCell>
        <mxCell id="OdtC2jutsqfuDb3ma48H-76" value="1..1" style="text;html=1;align=center;verticalAlign=middle;resizable=0;points=[];autosize=1;sketch=1;curveFitting=1;jiggle=2;swimlaneLine=1;shadow=0;labelBackgroundColor=none;fontFamily=Architects Daughter;fontSource=https%3A%2F%2Ffonts.googleapis.com%2Fcss%3Ffamily%3DArchitects%2BDaughter;rounded=1;" vertex="1" parent="1">
          <mxGeometry x="366" y="590" width="30" height="30" as="geometry" />
        </mxCell>
        <mxCell id="OdtC2jutsqfuDb3ma48H-23" value="&amp;lt; Manages" style="text;html=1;align=center;verticalAlign=middle;resizable=0;points=[];autosize=1;sketch=1;curveFitting=1;jiggle=2;labelBackgroundColor=none;fontFamily=Architects Daughter;fontSource=https%3A%2F%2Ffonts.googleapis.com%2Fcss%3Ffamily%3DArchitects%2BDaughter;rounded=1;swimlaneLine=1;" vertex="1" parent="1">
          <mxGeometry x="466" y="403" width="80" height="30" as="geometry" />
        </mxCell>
        <mxCell id="OdtC2jutsqfuDb3ma48H-79" value="0..1" style="text;html=1;align=center;verticalAlign=middle;resizable=0;points=[];autosize=1;sketch=1;curveFitting=1;jiggle=2;swimlaneLine=1;shadow=0;labelBackgroundColor=none;fontFamily=Architects Daughter;fontSource=https%3A%2F%2Ffonts.googleapis.com%2Fcss%3Ffamily%3DArchitects%2BDaughter;rounded=1;" vertex="1" parent="1">
          <mxGeometry x="366" y="440" width="40" height="30" as="geometry" />
        </mxCell>
        <mxCell id="OdtC2jutsqfuDb3ma48H-80" value="1..1" style="text;html=1;align=center;verticalAlign=middle;resizable=0;points=[];autosize=1;sketch=1;curveFitting=1;jiggle=2;swimlaneLine=1;shadow=0;labelBackgroundColor=none;fontFamily=Architects Daughter;fontSource=https%3A%2F%2Ffonts.googleapis.com%2Fcss%3Ffamily%3DArchitects%2BDaughter;rounded=1;" vertex="1" parent="1">
          <mxGeometry x="611" y="440" width="30" height="30" as="geometry" />
        </mxCell>
        <mxCell id="OdtC2jutsqfuDb3ma48H-82" value="&amp;lt; Shows" style="text;html=1;align=center;verticalAlign=middle;resizable=0;points=[];autosize=1;sketch=1;curveFitting=1;jiggle=2;swimlaneLine=1;shadow=0;labelBackgroundColor=none;fontFamily=Architects Daughter;fontSource=https%3A%2F%2Ffonts.googleapis.com%2Fcss%3Ffamily%3DArchitects%2BDaughter;rotation=90;rounded=1;" vertex="1" parent="1">
          <mxGeometry x="203" y="924" width="70" height="30" as="geometry" />
        </mxCell>
        <mxCell id="OdtC2jutsqfuDb3ma48H-83" value="0..*" style="text;html=1;align=center;verticalAlign=middle;resizable=0;points=[];autosize=1;sketch=1;curveFitting=1;jiggle=2;swimlaneLine=1;shadow=0;labelBackgroundColor=none;fontFamily=Architects Daughter;fontSource=https%3A%2F%2Ffonts.googleapis.com%2Fcss%3Ffamily%3DArchitects%2BDaughter;rounded=1;" vertex="1" parent="1">
          <mxGeometry x="251" y="990" width="40" height="30" as="geometry" />
        </mxCell>
        <mxCell id="OdtC2jutsqfuDb3ma48H-84" value="1..*" style="text;html=1;align=center;verticalAlign=middle;resizable=0;points=[];autosize=1;sketch=1;curveFitting=1;jiggle=2;swimlaneLine=1;shadow=0;labelBackgroundColor=none;fontFamily=Architects Daughter;fontSource=https%3A%2F%2Ffonts.googleapis.com%2Fcss%3Ffamily%3DArchitects%2BDaughter;rounded=1;" vertex="1" parent="1">
          <mxGeometry x="256" y="860" width="30" height="30" as="geometry" />
        </mxCell>
      </root>
    </mxGraphModel>
  </diagram>
</mxfile>
